<svg width="110" height="110" viewBox="0 0 110 110" fill="none" xmlns="http://www.w3.org/2000/svg">
<rect x="0.0488281" y="0.00610352" width="109.872" height="109.872" rx="24.7212" fill="url(#paint0_linear_725_81)"/>
<circle cx="66.5973" cy="94.7707" r="4.1202" fill="white"/>
<circle opacity="0.5" cx="42.6248" cy="94.7707" r="3.84552" fill="white" stroke="#7777FF" stroke-width="0.54936"/>
<circle cx="54.6119" cy="94.7707" r="4.1202" fill="white" fill-opacity="0.86"/>
<circle cx="90.6926" cy="21.9804" r="5.4936" fill="white"/>
<circle opacity="0.5" cx="54.9844" cy="54.9421" r="19.2276" fill="white"/>
<path d="M53.4859 50.7315C54.295 49.28 54.6996 48.5542 55.3044 48.5542C55.9093 48.5542 56.3138 49.28 57.1229 50.7315L57.3323 51.107C57.5622 51.5195 57.6772 51.7257 57.8564 51.8618C58.0357 51.9978 58.2589 52.0483 58.7054 52.1494L59.1119 52.2413C60.6831 52.5968 61.4687 52.7746 61.6556 53.3756C61.8425 53.9767 61.307 54.603 60.2358 55.8556L59.9587 56.1796C59.6543 56.5356 59.5021 56.7135 59.4336 56.9337C59.3652 57.1539 59.3882 57.3913 59.4342 57.8662L59.4761 58.2986C59.638 59.9698 59.719 60.8054 59.2297 61.1769C58.7403 61.5483 58.0048 61.2097 56.5336 60.5323L56.1531 60.3571C55.735 60.1646 55.526 60.0683 55.3044 60.0683C55.0828 60.0683 54.8738 60.1646 54.4558 60.3571L54.0752 60.5323C52.604 61.2097 51.8685 61.5483 51.3791 61.1769C50.8898 60.8054 50.9708 59.9698 51.1327 58.2986L51.1746 57.8662C51.2206 57.3913 51.2436 57.1539 51.1752 56.9337C51.1067 56.7135 50.9545 56.5356 50.6501 56.1796L50.373 55.8556C49.3019 54.603 48.7663 53.9767 48.9532 53.3756C49.1401 52.7746 49.9257 52.5968 51.4969 52.2413L51.9034 52.1494C52.3499 52.0484 52.5732 51.9978 52.7524 51.8618C52.9317 51.7257 53.0466 51.5195 53.2765 51.107L53.4859 50.7315Z" fill="#FFD912"/>
<path opacity="0.8" fill-rule="evenodd" clip-rule="evenodd" d="M54.9847 41.2081C55.5139 41.2081 55.9429 41.6371 55.9429 42.1663V44.7214C55.9429 45.2506 55.5139 45.6796 54.9847 45.6796C54.4555 45.6796 54.0265 45.2506 54.0265 44.7214V42.1663C54.0265 41.6371 54.4555 41.2081 54.9847 41.2081ZM41.2507 54.9421C41.2507 54.4129 41.6797 53.9839 42.2089 53.9839H44.7641C45.2933 53.9839 45.7223 54.4129 45.7223 54.9421C45.7223 55.4713 45.2933 55.9002 44.7641 55.9002H42.2089C41.6797 55.9002 41.2507 55.4713 41.2507 54.9421ZM64.2472 54.9421C64.2472 54.4129 64.6762 53.9839 65.2054 53.9839H67.7605C68.2897 53.9839 68.7187 54.4129 68.7187 54.9421C68.7187 55.4713 68.2897 55.9002 67.7605 55.9002H65.2054C64.6762 55.9002 64.2472 55.4713 64.2472 54.9421ZM54.9847 64.2045C55.5139 64.2045 55.9429 64.6335 55.9429 65.1627V67.7179C55.9429 68.2471 55.5139 68.6761 54.9847 68.6761C54.4555 68.6761 54.0265 68.2471 54.0265 67.7179V65.1627C54.0265 64.6335 54.4555 64.2045 54.9847 64.2045Z" fill="#FFD912"/>
<g opacity="0.5">
<path d="M63.327 46.5991C63.7011 46.9733 63.7011 47.58 63.327 47.9541L62.8884 48.3927C62.5142 48.7669 61.9075 48.7669 61.5333 48.3927C61.1591 48.0185 61.1591 47.4118 61.5333 47.0376L61.9719 46.5991C62.3461 46.2249 62.9528 46.2249 63.327 46.5991Z" fill="#FFD912"/>
<path d="M46.6408 46.5992C47.0149 46.225 47.6216 46.225 47.9958 46.5992L48.4344 47.0378C48.8086 47.412 48.8086 48.0186 48.4344 48.3928C48.0602 48.767 47.4535 48.767 47.0793 48.3928L46.6408 47.9543C46.2666 47.5801 46.2666 46.9734 46.6408 46.5992Z" fill="#FFD912"/>
<path d="M48.4342 61.4918C48.8084 61.866 48.8084 62.4727 48.4342 62.8469L47.996 63.2851C47.6218 63.6593 47.0151 63.6593 46.6409 63.2851C46.2667 62.9109 46.2667 62.3043 46.6409 61.9301L47.0792 61.4918C47.4533 61.1176 48.06 61.1176 48.4342 61.4918Z" fill="#FFD912"/>
<path d="M61.5333 61.4921C61.9075 61.1179 62.5142 61.1179 62.8884 61.4921L63.3266 61.9303C63.7008 62.3045 63.7008 62.9112 63.3266 63.2854C62.9525 63.6596 62.3458 63.6596 61.9716 63.2854L61.5333 62.8472C61.1591 62.473 61.1591 61.8663 61.5333 61.4921Z" fill="#FFD912"/>
</g>
<path fill-rule="evenodd" clip-rule="evenodd" d="M54.9848 82.4101C70.155 82.4101 82.4528 70.1122 82.4528 54.9421C82.4528 39.7719 70.155 27.4741 54.9848 27.4741C39.8147 27.4741 27.5168 39.7719 27.5168 54.9421C27.5168 70.1122 39.8147 82.4101 54.9848 82.4101ZM54.9848 74.1697C65.6039 74.1697 74.2124 65.5612 74.2124 54.9421C74.2124 44.323 65.6039 35.7145 54.9848 35.7145C44.3657 35.7145 35.7572 44.323 35.7572 54.9421C35.7572 65.5612 44.3657 74.1697 54.9848 74.1697Z" fill="white"/>
<defs>
<linearGradient id="paint0_linear_725_81" x1="0.0488281" y1="0.00610352" x2="103.054" y2="107.131" gradientUnits="userSpaceOnUse">
<stop stop-color="#7777FF"/>
<stop offset="1" stop-color="#B46FFA"/>
</linearGradient>
</defs>
</svg>
